<svg width="24" height="20" viewBox="0 0 24 20" fill="none" xmlns="http://www.w3.org/2000/svg">
<path d="M2.08317 11.4167H18.8848L13.7423 17.5933C13.6233 17.7366 13.5336 17.9019 13.4784 18.0798C13.4232 18.2577 13.4036 18.4448 13.4207 18.6302C13.4553 19.0048 13.6372 19.3504 13.9265 19.5908C14.2158 19.8313 14.5888 19.947 14.9634 19.9125C15.338 19.8779 15.6835 19.696 15.924 19.4067L23.0073 10.9067C23.055 10.8391 23.0976 10.768 23.1348 10.6942C23.1348 10.6233 23.2057 10.5808 23.234 10.51C23.2982 10.3476 23.3318 10.1747 23.3332 10C23.3318 9.82535 23.2982 9.65245 23.234 9.49001C23.234 9.41918 23.1632 9.37668 23.1348 9.30585C23.0976 9.23198 23.055 9.16095 23.0073 9.09335L15.924 0.593346C15.7908 0.433429 15.624 0.304824 15.4355 0.216678C15.2469 0.128531 15.0413 0.0830082 14.8332 0.0833462C14.5022 0.0826995 14.1814 0.197981 13.9265 0.40918C13.7831 0.528107 13.6645 0.674166 13.5776 0.838992C13.4906 1.00382 13.4371 1.18417 13.42 1.36972C13.4029 1.55527 13.4226 1.74237 13.4779 1.92031C13.5332 2.09825 13.623 2.26353 13.7423 2.40668L18.8848 8.58335H2.08317C1.70745 8.58335 1.34711 8.7326 1.08144 8.99828C0.81576 9.26396 0.666504 9.62429 0.666504 10C0.666504 10.3757 0.81576 10.7361 1.08144 11.0017C1.34711 11.2674 1.70745 11.4167 2.08317 11.4167Z" fill="#3E3E3E"/>
</svg>
